<svg width="258" height="45" viewBox="0 0 258 45" fill="none" xmlns="http://www.w3.org/2000/svg">
<path d="M0.84446 35V2.27273H13.7564C16.228 2.27273 18.3374 2.71484 20.0845 3.59908C21.8423 4.47266 23.1793 5.71378 24.0955 7.32244C25.0224 8.92045 25.4858 10.8008 25.4858 12.9634C25.4858 15.1367 25.017 17.0064 24.0795 18.5724C23.142 20.1278 21.7837 21.321 20.0046 22.152C18.2362 22.983 16.0948 23.3984 13.5806 23.3984H4.93537V17.8374H12.462C13.783 17.8374 14.8803 17.6562 15.7539 17.294C16.6275 16.9318 17.2773 16.3885 17.7035 15.6641C18.1403 14.9396 18.3587 14.0394 18.3587 12.9634C18.3587 11.8768 18.1403 10.9606 17.7035 10.2148C17.2773 9.4691 16.6222 8.90447 15.7379 8.52095C14.8643 8.12678 13.7617 7.92969 12.43 7.92969H7.76385V35H0.84446ZM18.5185 20.1065L26.6523 35H19.0138L11.0558 20.1065H18.5185ZM37.2472 35.4634C35.6811 35.4634 34.2855 35.1918 33.0604 34.6484C31.8352 34.0945 30.8658 33.2795 30.152 32.2035C29.4489 31.1168 29.0973 29.7638 29.0973 28.1445C29.0973 26.7809 29.3477 25.6357 29.8484 24.7088C30.3491 23.782 31.0309 23.0362 31.8938 22.4716C32.7567 21.907 33.7369 21.4808 34.8342 21.1932C35.9421 20.9055 37.1033 20.7031 38.3178 20.5859C39.7454 20.4368 40.896 20.2983 41.7695 20.1705C42.6431 20.032 43.277 19.8295 43.6712 19.5632C44.0653 19.2969 44.2624 18.9027 44.2624 18.3807V18.2848C44.2624 17.2727 43.9428 16.4897 43.3036 15.9357C42.6751 15.3817 41.7802 15.1048 40.619 15.1048C39.3938 15.1048 38.419 15.3764 37.6946 15.9197C36.9702 16.4524 36.4908 17.1236 36.2564 17.9332L29.9602 17.4219C30.2798 15.9304 30.9084 14.6413 31.8459 13.5547C32.7834 12.4574 33.9925 11.6158 35.4734 11.0298C36.9648 10.4332 38.6907 10.1349 40.6509 10.1349C42.0146 10.1349 43.3196 10.2947 44.5661 10.6143C45.8232 10.9339 46.9364 11.4293 47.9059 12.1005C48.886 12.7717 49.6584 13.6346 50.223 14.6893C50.7876 15.7333 51.07 16.9851 51.07 18.4446V35H44.614V31.5962H44.4222C44.0281 32.3633 43.5007 33.0398 42.8402 33.6257C42.1797 34.201 41.386 34.6538 40.4592 34.984C39.5323 35.3036 38.4616 35.4634 37.2472 35.4634ZM39.1967 30.7653C40.1982 30.7653 41.0824 30.5682 41.8494 30.174C42.6165 29.7692 43.2184 29.2259 43.6552 28.544C44.092 27.8622 44.3104 27.0898 44.3104 26.2269V23.6222C44.0973 23.7607 43.8043 23.8885 43.4315 24.0057C43.0692 24.1122 42.6591 24.2134 42.201 24.3093C41.7429 24.3945 41.2848 24.4744 40.8267 24.549C40.3686 24.6129 39.9531 24.6715 39.5803 24.7248C38.7813 24.842 38.0835 25.0284 37.4869 25.2841C36.8903 25.5398 36.4268 25.886 36.0966 26.3228C35.7663 26.7489 35.6012 27.2816 35.6012 27.9208C35.6012 28.8477 35.9368 29.5561 36.608 30.0462C37.2898 30.5256 38.1527 30.7653 39.1967 30.7653ZM56.3514 44.2045V10.4545H63.063V14.5774H63.3667C63.665 13.9169 64.0964 13.2457 64.661 12.5639C65.2363 11.8714 65.9821 11.2962 66.8983 10.8381C67.8251 10.3693 68.9757 10.1349 70.35 10.1349C72.1397 10.1349 73.791 10.6037 75.3038 11.5412C76.8166 12.468 78.0257 13.869 78.9313 15.744C79.8368 17.6083 80.2896 19.9467 80.2896 22.7592C80.2896 25.4972 79.8475 27.8089 78.9632 29.6946C78.0897 31.5696 76.8965 32.9918 75.3837 33.9613C73.8816 34.9201 72.1983 35.3995 70.334 35.3995C69.013 35.3995 67.889 35.1811 66.9622 34.7443C66.046 34.3075 65.2949 33.7589 64.709 33.0984C64.123 32.4272 63.6756 31.7507 63.3667 31.0689H63.1589V44.2045H56.3514ZM63.0151 22.7273C63.0151 24.1868 63.2175 25.4599 63.6223 26.5465C64.0272 27.6332 64.6131 28.4801 65.3801 29.0874C66.1472 29.6839 67.0794 29.9822 68.1767 29.9822C69.2846 29.9822 70.2221 29.6786 70.9892 29.0714C71.7562 28.4535 72.3368 27.6012 72.731 26.5146C73.1358 25.4173 73.3382 24.1548 73.3382 22.7273C73.3382 21.3104 73.1412 20.0639 72.747 18.9879C72.3528 17.9119 71.7722 17.0703 71.0051 16.4631C70.2381 15.8558 69.2953 15.5522 68.1767 15.5522C67.0687 15.5522 66.1312 15.8452 65.3642 16.4311C64.6078 17.017 64.0272 17.848 63.6223 18.924C63.2175 20 63.0151 21.2678 63.0151 22.7273ZM84.8279 35V10.4545H91.6355V35H84.8279ZM88.2477 7.29048C87.2356 7.29048 86.3674 6.9549 85.6429 6.28373C84.9292 5.60192 84.5723 4.78693 84.5723 3.83878C84.5723 2.90128 84.9292 2.09695 85.6429 1.42578C86.3674 0.743962 87.2356 0.403052 88.2477 0.403052C89.2598 0.403052 90.1227 0.743962 90.8365 1.42578C91.5609 2.09695 91.9231 2.90128 91.9231 3.83878C91.9231 4.78693 91.5609 5.60192 90.8365 6.28373C90.1227 6.9549 89.2598 7.29048 88.2477 7.29048ZM106.133 35.3995C104.269 35.3995 102.581 34.9201 101.068 33.9613C99.5656 32.9918 98.3724 31.5696 97.4882 29.6946C96.6146 27.8089 96.1778 25.4972 96.1778 22.7592C96.1778 19.9467 96.6306 17.6083 97.5361 15.744C98.4417 13.869 99.6455 12.468 101.148 11.5412C102.66 10.6037 104.317 10.1349 106.117 10.1349C107.492 10.1349 108.637 10.3693 109.553 10.8381C110.48 11.2962 111.226 11.8714 111.79 12.5639C112.366 13.2457 112.802 13.9169 113.101 14.5774H113.309V2.27273H120.1V35H113.388V31.0689H113.101C112.781 31.7507 112.328 32.4272 111.742 33.0984C111.167 33.7589 110.416 34.3075 109.489 34.7443C108.573 35.1811 107.454 35.3995 106.133 35.3995ZM108.291 29.9822C109.388 29.9822 110.315 29.6839 111.071 29.0874C111.838 28.4801 112.424 27.6332 112.829 26.5465C113.245 25.4599 113.452 24.1868 113.452 22.7273C113.452 21.2678 113.25 20 112.845 18.924C112.44 17.848 111.854 17.017 111.087 16.4311C110.32 15.8452 109.388 15.5522 108.291 15.5522C107.172 15.5522 106.229 15.8558 105.462 16.4631C104.695 17.0703 104.115 17.9119 103.72 18.9879C103.326 20.0639 103.129 21.3104 103.129 22.7273C103.129 24.1548 103.326 25.4173 103.72 26.5146C104.125 27.6012 104.706 28.4535 105.462 29.0714C106.229 29.6786 107.172 29.9822 108.291 29.9822ZM137.426 35H125.825V2.27273H137.522C140.814 2.27273 143.648 2.92791 146.024 4.23828C148.4 5.538 150.227 7.40767 151.505 9.8473C152.794 12.2869 153.439 15.206 153.439 18.6044C153.439 22.0135 152.794 24.9432 151.505 27.3935C150.227 29.8437 148.389 31.7241 145.992 33.0344C143.605 34.3448 140.75 35 137.426 35ZM132.744 29.0714H137.139C139.184 29.0714 140.905 28.7092 142.3 27.9847C143.707 27.2496 144.761 26.1151 145.464 24.581C146.178 23.0362 146.535 21.044 146.535 18.6044C146.535 16.1861 146.178 14.2099 145.464 12.6758C144.761 11.1417 143.712 10.0124 142.316 9.288C140.921 8.56357 139.2 8.20135 137.155 8.20135H132.744V29.0714ZM158.436 35V10.4545H165.036V14.7372H165.292C165.739 13.2138 166.49 12.0632 167.545 11.2855C168.6 10.4972 169.814 10.103 171.188 10.103C171.529 10.103 171.897 10.1243 172.291 10.1669C172.685 10.2095 173.032 10.2681 173.33 10.3427V16.3832C173.01 16.2873 172.568 16.2021 172.003 16.1275C171.439 16.0529 170.922 16.0156 170.453 16.0156C169.452 16.0156 168.557 16.234 167.769 16.6708C166.991 17.0969 166.373 17.6935 165.915 18.4606C165.468 19.2276 165.244 20.1119 165.244 21.1133V35H158.436ZM183.146 35.4634C181.58 35.4634 180.184 35.1918 178.959 34.6484C177.734 34.0945 176.764 33.2795 176.05 32.2035C175.347 31.1168 174.996 29.7638 174.996 28.1445C174.996 26.7809 175.246 25.6357 175.747 24.7088C176.248 23.782 176.929 23.0362 177.792 22.4716C178.655 21.907 179.635 21.4808 180.733 21.1932C181.841 20.9055 183.002 20.7031 184.216 20.5859C185.644 20.4368 186.794 20.2983 187.668 20.1705C188.542 20.032 189.175 19.8295 189.57 19.5632C189.964 19.2969 190.161 18.9027 190.161 18.3807V18.2848C190.161 17.2727 189.841 16.4897 189.202 15.9357C188.574 15.3817 187.679 15.1048 186.517 15.1048C185.292 15.1048 184.317 15.3764 183.593 15.9197C182.869 16.4524 182.389 17.1236 182.155 17.9332L175.859 17.4219C176.178 15.9304 176.807 14.6413 177.744 13.5547C178.682 12.4574 179.891 11.6158 181.372 11.0298C182.863 10.4332 184.589 10.1349 186.549 10.1349C187.913 10.1349 189.218 10.2947 190.464 10.6143C191.722 10.9339 192.835 11.4293 193.804 12.1005C194.784 12.7717 195.557 13.6346 196.121 14.6893C196.686 15.7333 196.968 16.9851 196.968 18.4446V35H190.512V31.5962H190.321C189.926 32.3633 189.399 33.0398 188.739 33.6257C188.078 34.201 187.284 34.6538 186.358 34.984C185.431 35.3036 184.36 35.4634 183.146 35.4634ZM185.095 30.7653C186.097 30.7653 186.981 30.5682 187.748 30.174C188.515 29.7692 189.117 29.2259 189.554 28.544C189.99 27.8622 190.209 27.0898 190.209 26.2269V23.6222C189.996 23.7607 189.703 23.8885 189.33 24.0057C188.968 24.1122 188.558 24.2134 188.099 24.3093C187.641 24.3945 187.183 24.4744 186.725 24.549C186.267 24.6129 185.852 24.6715 185.479 24.7248C184.68 24.842 183.982 25.0284 183.385 25.2841C182.789 25.5398 182.325 25.886 181.995 26.3228C181.665 26.7489 181.5 27.2816 181.5 27.9208C181.5 28.8477 181.835 29.5561 182.506 30.0462C183.188 30.5256 184.051 30.7653 185.095 30.7653ZM215.449 10.4545V15.5682H200.3V10.4545H215.449ZM203.768 35V8.68075C203.768 6.90163 204.114 5.42613 204.807 4.25426C205.51 3.08238 206.469 2.20348 207.683 1.61754C208.898 1.0316 210.277 0.738634 211.822 0.738634C212.866 0.738634 213.819 0.818535 214.682 0.978338C215.556 1.13814 216.206 1.28196 216.632 1.4098L215.417 6.52344C215.151 6.43821 214.821 6.35831 214.427 6.28373C214.043 6.20916 213.649 6.17188 213.244 6.17188C212.243 6.17188 211.545 6.40625 211.151 6.875C210.757 7.3331 210.559 7.97763 210.559 8.80859V35H203.768ZM232.664 10.4545V15.5682H217.882V10.4545H232.664ZM221.238 4.57386H228.046V27.4574C228.046 28.0859 228.142 28.576 228.333 28.9276C228.525 29.2685 228.791 29.5082 229.132 29.6467C229.484 29.7852 229.889 29.8544 230.347 29.8544C230.666 29.8544 230.986 29.8278 231.306 29.7745C231.625 29.7106 231.87 29.6626 232.041 29.6307L233.111 34.6964C232.771 34.8029 232.291 34.9254 231.673 35.0639C231.055 35.2131 230.304 35.3036 229.42 35.3356C227.779 35.3995 226.341 35.1811 225.105 34.6804C223.88 34.1797 222.927 33.402 222.245 32.3473C221.563 31.2926 221.228 29.9609 221.238 28.3523V4.57386ZM257.213 17.4538L250.981 17.8374C250.875 17.3047 250.646 16.8253 250.294 16.3991C249.942 15.9624 249.479 15.6161 248.904 15.3604C248.339 15.0941 247.663 14.9609 246.874 14.9609C245.82 14.9609 244.93 15.1847 244.206 15.6321C243.481 16.0689 243.119 16.6548 243.119 17.3899C243.119 17.9759 243.353 18.4712 243.822 18.8761C244.291 19.2809 245.095 19.6058 246.235 19.8509L250.678 20.7457C253.064 21.2358 254.843 22.0241 256.015 23.1108C257.187 24.1974 257.773 25.625 257.773 27.3935C257.773 29.0021 257.299 30.4137 256.35 31.6282C255.413 32.8427 254.124 33.7908 252.483 34.4727C250.853 35.1438 248.973 35.4794 246.842 35.4794C243.593 35.4794 241.004 34.8029 239.076 33.4499C237.158 32.0863 236.034 30.2326 235.704 27.8888L242.4 27.5373C242.602 28.5281 243.092 29.2844 243.87 29.8065C244.648 30.3178 245.644 30.5735 246.858 30.5735C248.051 30.5735 249.01 30.3445 249.735 29.8864C250.47 29.4176 250.843 28.8157 250.853 28.0806C250.843 27.4627 250.582 26.9567 250.07 26.5625C249.559 26.1577 248.771 25.8487 247.705 25.6357L243.455 24.7887C241.058 24.3093 239.273 23.4783 238.101 22.2958C236.94 21.1133 236.359 19.6058 236.359 17.7734C236.359 16.1967 236.786 14.8384 237.638 13.6985C238.501 12.5586 239.71 11.6797 241.265 11.0618C242.831 10.4439 244.664 10.1349 246.762 10.1349C249.863 10.1349 252.302 10.7901 254.081 12.1005C255.871 13.4109 256.915 15.1953 257.213 17.4538Z" fill="url(#paint0_linear_1_3)"/>
<defs>
<linearGradient id="paint0_linear_1_3" x1="-2" y1="19" x2="260" y2="19" gradientUnits="userSpaceOnUse">
<stop offset="0.021139" stop-color="#3065E2"/>
<stop offset="0.137359" stop-color="#4580EC"/>
<stop offset="0.566992" stop-color="#67A9FB"/>
</linearGradient>
</defs>
</svg>
